HIERARCHY
ROOT Hips
{
	OFFSET 0.000000 100.481300 0.000000
	CHANNELS 6 Xposition Yposition Zposition Xrotation Yrotation Zrotation 
	JOINT Spine
	{
		OFFSET -0.279200 12.230698 -2.892100
		CHANNELS 3 Xrotation Yrotation Zrotation
		JOINT Spine1
		{
			OFFSET -0.232667 10.192268 -1.242267
			CHANNELS 3 Xrotation Yrotation Zrotation
			JOINT Spine1_split
			{
				OFFSET -0.232667 10.192268 -1.242267
				CHANNELS 3 Xrotation Yrotation Zrotation
				JOINT Spine2
				{
					OFFSET -0.232667 10.192268 -1.242267
					CHANNELS 3 Xrotation Yrotation Zrotation
					JOINT Neck
					{
						OFFSET -0.418800 17.814194 8.416900
						CHANNELS 3 Xrotation Yrotation Zrotation
						JOINT Head
						{
							OFFSET 0.000000 7.031097 3.806800
							CHANNELS 3 Xrotation Yrotation Zrotation
							JOINT HeadTop_End
							{
								OFFSET 0.000000 24.646606 12.978600
								CHANNELS 3 Xrotation Yrotation Zrotation
								End Site
								{
									OFFSET 0.000000 0.000000 0.000000
								}
							}
						}
					}
					JOINT LeftShoulder
					{
						OFFSET 8.476499 7.247704 -3.868750
						CHANNELS 3 Xrotation Yrotation Zrotation
						JOINT LeftShoulder_split
						{
							OFFSET 8.476499 7.247704 -3.868750
							CHANNELS 3 Xrotation Yrotation Zrotation
							JOINT LeftArm
							{
								OFFSET 9.308998 -2.777710 0.208600
								CHANNELS 3 Xrotation Yrotation Zrotation
								JOINT LeftForeArm
								{
									OFFSET 29.972298 0.000000 0.000000
									CHANNELS 3 Xrotation Yrotation Zrotation
									JOINT LeftHand
									{
										OFFSET 26.026505 0.000000 0.000000
										CHANNELS 3 Xrotation Yrotation Zrotation
										JOINT LeftHandThumb1
										{
											OFFSET 12.240501 -7.147949 9.207150
											CHANNELS 3 Xrotation Yrotation Zrotation
											JOINT LeftHandThumb2
											{
												OFFSET 4.138618 -2.389435 2.389433
												CHANNELS 3 Xrotation Yrotation Zrotation
												JOINT LeftHandThumb3
												{
													OFFSET 2.726913 -1.574387 1.574386
													CHANNELS 3 Xrotation Yrotation Zrotation
													JOINT LeftHandThumb4
													{
														OFFSET 3.941010 -2.275345 2.275342
														CHANNELS 3 Xrotation Yrotation Zrotation
														End Site
														{
															OFFSET 0.000000 0.000000 0.000000
														}
													}
												}
											}
										}
										JOINT LeftHandIndex1
										{
											OFFSET 24.424698 -1.985611 5.953459
											CHANNELS 3 Xrotation Yrotation Zrotation
											JOINT LeftHandIndex2
											{
												OFFSET 6.426697 0.000000 0.000000
												CHANNELS 3 Xrotation Yrotation Zrotation
												JOINT LeftHandIndex3
												{
													OFFSET 5.337898 0.000000 0.000000
													CHANNELS 3 Xrotation Yrotation Zrotation
													JOINT LeftHandIndex4
													{
														OFFSET 4.409401 0.000000 0.000000
														CHANNELS 3 Xrotation Yrotation Zrotation
														End Site
														{
															OFFSET 0.000000 0.000000 0.000000
														}
													}
												}
											}
										}
										JOINT LeftHandMiddle1
										{
											OFFSET 23.810104 0.000000 0.000000
											CHANNELS 3 Xrotation Yrotation Zrotation
											JOINT LeftHandMiddle2
											{
												OFFSET 7.176498 0.000000 0.000000
												CHANNELS 3 Xrotation Yrotation Zrotation
												JOINT LeftHandMiddle3
												{
													OFFSET 6.774902 0.000000 0.000000
													CHANNELS 3 Xrotation Yrotation Zrotation
													JOINT LeftHandMiddle4
													{
														OFFSET 5.403328 0.000000 0.000000
														CHANNELS 3 Xrotation Yrotation Zrotation
														End Site
														{
															OFFSET 0.000000 0.000000 0.000000
														}
													}
												}
											}
										}
										JOINT LeftHandRing1
										{
											OFFSET 22.908401 -0.839279 -6.020567
											CHANNELS 3 Xrotation Yrotation Zrotation
											JOINT LeftHandRing2
											{
												OFFSET 6.337502 0.000000 0.000000
												CHANNELS 3 Xrotation Yrotation Zrotation
												JOINT LeftHandRing3
												{
													OFFSET 5.779297 0.000000 0.000000
													CHANNELS 3 Xrotation Yrotation Zrotation
													JOINT LeftHandRing4
													{
														OFFSET 4.965698 0.000000 0.000000
														CHANNELS 3 Xrotation Yrotation Zrotation
														End Site
														{
															OFFSET 0.000000 0.000000 0.000000
														}
													}
												}
											}
										}
										JOINT LeftHandPinky1
										{
											OFFSET 20.037003 -1.530319 -10.950146
											CHANNELS 3 Xrotation Yrotation Zrotation
											JOINT LeftHandPinky2
											{
												OFFSET 5.254700 0.000000 0.000000
												CHANNELS 3 Xrotation Yrotation Zrotation
												JOINT LeftHandPinky3
												{
													OFFSET 4.810204 0.000000 0.000000
													CHANNELS 3 Xrotation Yrotation Zrotation
													JOINT LeftHandPinky4
													{
														OFFSET 3.647202 0.000000 0.000000
														CHANNELS 3 Xrotation Yrotation Zrotation
														End Site
														{
															OFFSET 0.000000 0.000000 0.000000
														}
													}
												}
											}
										}
									}
								}
							}
						}
					}
					JOINT RightShoulder
					{
						OFFSET -7.570500 7.247704 -3.868750
						CHANNELS 3 Xrotation Yrotation Zrotation
						JOINT RightShoulder_split
						{
							OFFSET -7.570500 7.247704 -3.868750
							CHANNELS 3 Xrotation Yrotation Zrotation
							JOINT RightArm
							{
								OFFSET -9.308998 -2.777710 0.208500
								CHANNELS 3 Xrotation Yrotation Zrotation
								JOINT RightForeArm
								{
									OFFSET -29.972300 0.000000 0.000000
									CHANNELS 3 Xrotation Yrotation Zrotation
									JOINT RightHand
									{
										OFFSET -26.026505 0.000000 0.000000
										CHANNELS 3 Xrotation Yrotation Zrotation
										JOINT RightHandThumb1
										{
											OFFSET -12.240601 -7.148026 9.207092
											CHANNELS 3 Xrotation Yrotation Zrotation
											JOINT RightHandThumb2
											{
												OFFSET -4.138618 -2.389435 2.389433
												CHANNELS 3 Xrotation Yrotation Zrotation
												JOINT RightHandThumb3
												{
													OFFSET -2.726974 -1.574417 1.574421
													CHANNELS 3 Xrotation Yrotation Zrotation
													JOINT RightHandThumb4
													{
														OFFSET -3.941010 -2.275345 2.275343
														CHANNELS 3 Xrotation Yrotation Zrotation
														End Site
														{
															OFFSET 0.000000 0.000000 0.000000
														}
													}
												}
											}
										}
										JOINT RightHandIndex1
										{
											OFFSET -24.424698 -1.985657 5.953444
											CHANNELS 3 Xrotation Yrotation Zrotation
											JOINT RightHandIndex2
											{
												OFFSET -6.426697 0.000000 0.000000
												CHANNELS 3 Xrotation Yrotation Zrotation
												JOINT RightHandIndex3
												{
													OFFSET -5.337898 0.000000 0.000000
													CHANNELS 3 Xrotation Yrotation Zrotation
													JOINT RightHandIndex4
													{
														OFFSET -4.409401 0.000000 0.000000
														CHANNELS 3 Xrotation Yrotation Zrotation
														End Site
														{
															OFFSET 0.000000 0.000000 0.000000
														}
													}
												}
											}
										}
										JOINT RightHandMiddle1
										{
											OFFSET -23.810097 0.000000 0.000000
											CHANNELS 3 Xrotation Yrotation Zrotation
											JOINT RightHandMiddle2
											{
												OFFSET -7.176498 0.000000 0.000000
												CHANNELS 3 Xrotation Yrotation Zrotation
												JOINT RightHandMiddle3
												{
													OFFSET -6.774902 0.000000 0.000000
													CHANNELS 3 Xrotation Yrotation Zrotation
													JOINT RightHandMiddle4
													{
														OFFSET -5.403328 0.000000 0.000000
														CHANNELS 3 Xrotation Yrotation Zrotation
														End Site
														{
															OFFSET 0.000000 0.000000 0.000000
														}
													}
												}
											}
										}
										JOINT RightHandRing1
										{
											OFFSET -22.908302 -0.839325 -6.020576
											CHANNELS 3 Xrotation Yrotation Zrotation
											JOINT RightHandRing2
											{
												OFFSET -6.337502 0.000000 0.000000
												CHANNELS 3 Xrotation Yrotation Zrotation
												JOINT RightHandRing3
												{
													OFFSET -5.779297 0.000000 0.000000
													CHANNELS 3 Xrotation Yrotation Zrotation
													JOINT RightHandRing4
													{
														OFFSET -4.965698 0.000000 0.000000
														CHANNELS 3 Xrotation Yrotation Zrotation
														End Site
														{
															OFFSET 0.000000 0.000000 0.000000
														}
													}
												}
											}
										}
										JOINT RightHandPinky1
										{
											OFFSET -20.037003 -1.530334 -10.950259
											CHANNELS 3 Xrotation Yrotation Zrotation
											JOINT RightHandPinky2
											{
												OFFSET -5.254700 0.000000 0.000000
												CHANNELS 3 Xrotation Yrotation Zrotation
												JOINT RightHandPinky3
												{
													OFFSET -4.810204 0.000000 0.000000
													CHANNELS 3 Xrotation Yrotation Zrotation
													JOINT RightHandPinky4
													{
														OFFSET -3.647202 0.000000 0.000000
														CHANNELS 3 Xrotation Yrotation Zrotation
														End Site
														{
															OFFSET 0.000000 0.000000 0.000000
														}
													}
												}
											}
										}
									}
								}
							}
						}
					}
				}
			}
		}
	}
	JOINT LeftUpLeg
	{
		OFFSET 15.427100 -6.655098 0.678600
		CHANNELS 3 Xrotation Yrotation Zrotation
		JOINT LeftLeg
		{
			OFFSET 4.081073 -39.591068 13.024000
			CHANNELS 3 Xrotation Yrotation Zrotation
			JOINT LeftFoot
			{
				OFFSET -4.081074 -37.707932 -15.979700
				CHANNELS 3 Xrotation Yrotation Zrotation
				JOINT LeftToeBase
				{
					OFFSET 5.346399 -15.068900 20.645000
					CHANNELS 3 Xrotation Yrotation Zrotation
					JOINT LeftToe_End
					{
						OFFSET 2.754700 0.931300 11.300900
						CHANNELS 3 Xrotation Yrotation Zrotation
						End Site
						{
							OFFSET 0.000000 0.000000 0.000000
						}
					}
				}
			}
		}
	}
	JOINT RightUpLeg
	{
		OFFSET -15.569500 -6.655098 0.678600
		CHANNELS 3 Xrotation Yrotation Zrotation
		JOINT RightLeg
		{
			OFFSET -4.081825 -39.591045 13.023800
			CHANNELS 3 Xrotation Yrotation Zrotation
			JOINT RightFoot
			{
				OFFSET 4.081824 -37.707954 -15.979600
				CHANNELS 3 Xrotation Yrotation Zrotation
				JOINT RightToeBase
				{
					OFFSET -5.346400 -15.068900 20.645000
					CHANNELS 3 Xrotation Yrotation Zrotation
					JOINT RightToe_End
					{
						OFFSET -2.754700 0.931300 11.300900
						CHANNELS 3 Xrotation Yrotation Zrotation
						End Site
						{
							OFFSET 0.000000 0.000000 0.000000
						}
					}
				}
			}
		}
	}
}
MOTION
Frames: 4
Frame Time: 0.016667
0.106485 95.738449 -1.424677 -4.120024 -1.702972 0.663331 3.463682 1.721341 -2.521269 0.710881 0.526838 -0.263051 0.000000 0.000000 0.000000 0.710198 0.523097 -0.267070 2.609733 -0.754816 0.156819 18.950512 -7.303241 0.624141 -0.000001 0.000000 -0.000000 2.730607 -4.471829 -12.384152 0.000000 0.000000 0.000000 -6.603776 -10.273120 -60.669169 0.000002 -16.775185 -0.000008 21.485694 -10.082275 -12.336697 3.397825 -6.557747 3.595392 15.353586 21.247757 9.263505 -12.577497 5.210863 15.704473 -0.000002 -0.000002 0.000001 -1.222340 -0.461775 -28.262349 0.291715 1.827317 -18.139058 0.038969 0.675382 -6.605507 -0.000001 0.000000 -0.000002 0.095140 4.196375 -33.991208 0.439517 2.228196 -22.314300 0.188190 1.474415 -14.546785 0.000001 -0.000002 -0.000001 5.761721 10.460345 -44.834516 0.435455 2.218271 -22.209381 0.278407 1.786190 -17.716910 0.000000 0.000001 0.000001 11.866686 15.214661 -50.260367 0.411985 2.159924 -21.594861 0.689710 2.759693 -28.059083 0.000001 0.000003 -0.000000 1.996585 1.476375 14.937829 0.000000 0.000000 0.000000 -2.025623 7.814285 63.299960 -0.000004 12.108126 0.000018 6.522651 12.381299 10.265043 -1.352782 9.111907 0.370099 17.058310 -29.720974 -6.078647 -13.949252 -13.457313 -16.103943 -0.000001 -0.000000 -0.000001 -1.823892 1.946411 21.104018 0.341695 -1.752636 22.062544 0.059806 -0.744759 9.182100 -0.000000 -0.000001 -0.000002 -0.809694 -1.799965 27.787967 0.365845 -1.811051 22.839205 0.241657 -1.482182 18.519426 -0.000001 0.000000 -0.000001 2.161598 -6.996786 31.854599 0.441469 -1.980949 25.124422 0.360397 -1.798065 22.666261 0.000001 -0.000001 0.000001 4.447222 -11.624192 37.638840 0.491086 -2.083410 26.523578 0.610439 -2.306956 29.638960 -0.000000 -0.000000 -0.000001 -3.126422 8.023940 6.912696 14.823283 8.427673 0.886843 -5.941892 5.960996 -8.536701 1.066092 -0.000007 -0.000000 -0.000000 -0.000002 0.000000 -0.616515 -9.164404 -8.741552 15.330153 -8.336879 1.636465 -8.839961 -5.831347 6.918471 -1.455180 -0.000001 -0.000000 0.000000 0.000001 -0.000000 
-0.015637 95.564018 -1.678103 -4.299867 -1.327689 0.762439 3.653624 1.910835 -2.474047 0.742683 0.579923 -0.240280 0.000000 0.000000 0.000000 0.742192 0.575776 -0.244851 2.557503 -0.815733 0.156847 18.874458 -7.890828 0.747877 -0.000001 -0.000001 0.000000 2.723279 -4.477275 -12.342101 0.000000 0.000000 0.000000 -6.439326 -9.530075 -60.740019 0.000001 -16.130151 0.000001 22.222864 -9.762241 -12.288142 3.397821 -6.557749 3.595395 15.386468 21.304736 9.230594 -12.471111 5.306286 15.630400 0.000002 -0.000001 0.000002 -1.171231 -0.431680 -28.161485 0.297619 1.845208 -18.323147 0.038486 0.671145 -6.563857 -0.000005 0.000001 -0.000002 0.117145 4.248504 -34.358645 0.437369 2.222932 -22.258690 0.191508 1.487122 -14.674988 0.000002 -0.000002 -0.000001 5.785885 10.499924 -44.722675 0.442091 2.234464 -22.380455 0.289768 1.821356 -18.077933 -0.000002 0.000004 0.000002 12.010679 15.220076 -50.621592 0.430307 2.205657 -22.076471 0.697329 2.773934 -28.217041 0.000000 0.000000 0.000000 1.997861 1.678048 14.926608 0.000000 0.000000 0.000000 -2.716036 8.083339 63.101973 0.000007 12.576848 -0.000035 6.347667 12.451771 10.578724 -1.352782 9.111907 0.370101 17.109407 -29.778204 -6.033857 -14.027959 -13.265814 -16.227582 0.000001 0.000000 0.000001 -1.914896 1.926752 21.734826 0.354111 -1.782940 22.465042 0.063677 -0.768296 9.474908 -0.000002 -0.000001 -0.000003 -0.822215 -1.866072 28.591681 0.378288 -1.840310 23.229963 0.247125 -1.498387 18.729547 0.000001 0.000000 0.000001 2.205338 -6.995217 32.676499 0.453285 -2.005941 25.464240 0.365911 -1.811193 22.841068 0.000002 0.000000 -0.000001 4.563056 -11.613682 38.479411 0.502031 -2.105175 26.822961 0.615731 -2.316224 29.770056 0.000001 0.000003 -0.000001 -3.478165 7.951422 6.963535 15.386523 8.427502 0.885899 -6.197942 5.594712 -8.569840 1.064032 0.000005 0.000000 -0.000000 0.000002 -0.000000 -0.806199 -9.016416 -8.670182 15.979262 -8.359556 1.481009 -9.094784 -6.323241 6.925589 -1.459491 0.000014 0.000000 -0.000000 0.000002 0.000000 
-0.125861 95.420547 -1.919772 -4.504832 -0.992329 0.849016 3.859085 2.114131 -2.416419 0.779252 0.636650 -0.214313 0.000000 0.000000 0.000000 0.779023 0.632011 -0.219523 2.504434 -0.875463 0.156875 18.776648 -8.477597 0.864274 -0.000000 -0.000001 -0.000000 2.725929 -4.533560 -12.333781 0.000000 0.000000 0.000000 -6.245857 -8.768370 -60.756575 -0.000000 -15.406545 -0.000001 22.884381 -9.466681 -12.270942 3.397818 -6.557743 3.595392 15.418061 21.359204 9.199017 -12.299712 5.460060 15.504558 0.000001 0.000002 0.000003 -1.119846 -0.397999 -28.078595 0.305154 1.867846 -18.556294 0.038952 0.675210 -6.603861 -0.000002 -0.000003 -0.000005 0.143358 4.310984 -34.824259 0.439428 2.227978 -22.312109 0.191168 1.485837 -14.661904 -0.000002 -0.000002 0.000000 5.850560 10.548830 -44.833570 0.441410 2.232817 -22.363006 0.304844 1.866885 -18.546363 -0.000001 -0.000000 -0.000001 12.071292 15.267117 -50.593527 0.454695 2.264797 -22.701334 0.704972 2.788123 -28.374404 0.000000 -0.000002 -0.000000 1.997979 1.881702 14.910771 0.000000 0.000000 0.000000 -3.306485 8.365057 62.900756 0.000002 13.174783 -0.000014 6.023910 12.660646 11.096666 -1.352784 9.111908 0.370099 17.154660 -29.828765 -5.994229 -14.108559 -13.068040 -16.356696 -0.000002 0.000000 0.000001 -1.992503 1.916374 22.233615 0.366400 -1.812376 22.856904 0.067879 -0.793067 9.783461 -0.000001 0.000001 -0.000001 -0.836417 -1.925795 29.374595 0.391630 -1.871058 23.641720 0.253014 -1.515672 18.953973 0.000000 0.000001 0.000000 2.254776 -7.003509 33.488687 0.465547 -2.031487 25.812501 0.371884 -1.825307 23.029410 -0.000000 0.000002 -0.000001 4.679349 -11.600642 39.336637 0.513843 -2.128365 27.142847 0.621705 -2.326619 29.917519 -0.000001 -0.000002 0.000000 -3.739357 7.878769 7.000301 15.851208 8.427192 0.895367 -6.410433 5.263018 -8.598350 1.061972 0.000003 0.000001 0.000000 0.000000 -0.000000 -0.918196 -8.919650 -8.614390 16.507445 -8.378783 1.366855 -9.288493 -6.732152 6.916795 -1.463801 -0.000006 0.000000 -0.000000 -0.000001 0.000000 
-0.227107 95.301849 -2.148804 -4.716698 -0.664598 0.920723 4.055118 2.303598 -2.341261 0.816892 0.688822 -0.187654 0.000000 0.000000 0.000000 0.816968 0.683690 -0.193516 2.454511 -0.931647 0.156904 18.669870 -9.033304 0.984025 0.000002 0.000000 0.000000 2.731425 -4.597780 -12.332032 0.000000 0.000000 0.000000 -6.033518 -7.976576 -60.769218 0.000007 -14.615922 0.000022 23.498368 -9.138155 -12.293593 3.397816 -6.557748 3.595391 15.448418 21.411492 9.168652 -12.005061 5.721986 15.280880 0.000001 0.000002 0.000000 -1.062557 -0.357058 -28.005063 0.313278 1.891807 -18.803198 0.039986 0.684147 -6.691622 0.000004 0.000002 -0.000003 0.172052 4.377154 -35.317488 0.444000 2.239080 -22.429260 0.188449 1.475415 -14.556871 0.000002 -0.000003 -0.000003 5.951445 10.614502 -45.075389 0.435979 2.219561 -22.222840 0.323242 1.920834 -19.103173 0.000001 -0.000001 -0.000001 12.075848 15.341317 -50.311908 0.484490 2.334704 -23.444117 0.712797 2.802539 -28.534888 -0.000000 0.000001 -0.000000 2.000277 2.088532 14.902334 0.000000 0.000000 0.000000 -3.800158 8.674480 62.681138 -0.000003 13.889293 0.000003 5.628968 13.001798 11.760473 -1.352779 9.111913 0.370100 17.142407 -29.817218 -6.000204 -14.180480 -12.896271 -16.481052 -0.000000 -0.000001 -0.000003 -2.046316 1.896134 22.639891 0.378261 -1.840221 23.228775 0.072308 -0.818323 10.098194 -0.000002 -0.000003 -0.000004 -0.864183 -1.957205 30.119447 0.405464 -1.902320 24.061737 0.259407 -1.534125 19.193769 -0.000003 0.000000 0.000000 2.313611 -7.025333 34.301852 0.478622 -2.058270 26.178741 0.378260 -1.840233 23.228840 0.000001 -0.000000 0.000001 4.785205 -11.581168 40.184595 0.526297 -2.152486 27.476517 0.628246 -2.337943 30.078125 0.000000 0.000000 0.000000 -3.950642 7.808260 7.036467 16.244492 8.426316 0.913629 -6.589591 4.930335 -8.625179 1.059915 0.000003 -0.000002 -0.000000 0.000000 -0.000000 -0.968366 -8.877404 -8.573053 16.931964 -8.389709 1.305422 -9.437498 -7.086002 6.882567 -1.468107 -0.000002 0.000001 -0.000000 0.000000 -0.000000 
